<svg xmlns="http://www.w3.org/2000/svg" viewBox="0 0 424.84 187.2"><defs><style>.cls-1{fill:#7fff00;}.cls-2{fill:#006837;}.cls-3{fill:#39b54a;}</style></defs><title>ve-food-brand-icon</title><g id="Livello_2" data-name="Livello 2"><g id="Livello_1-2" data-name="Livello 1"><g id="layer1"><g id="g132"><path id="path134" class="cls-1" d="M47.49,187.19c-13.62-1-21-5.81-24.9-11.24a2,2,0,0,1-.38-1.31C23,160.88,25.13,143.92,31,128.5c3.43-9,8.29-17.12,14.25-23.1A131.79,131.79,0,0,1,63.86,88.27a108.72,108.72,0,0,1,25.81-14.1c3.36-1.3,9.39-3.73,16.69-6.45A135.52,135.52,0,0,0,130,57.22c.32-.17.63-.34.93-.52a2.09,2.09,0,0,0-1.79-3.76l-.47.19a143,143,0,0,1-23.84,7.43,175.34,175.34,0,0,0-17.36,5.25c-6.54,2.73-45.71,15.27-65.72,57.29a147,147,0,0,0-8.64,29.19,2.08,2.08,0,0,1-3.29,1.27,22.67,22.67,0,0,1-9-14.86C-1.85,122.76-.37,75,43,48.4s91.69-21.25,114.84-29A61.39,61.39,0,0,0,185.3.75,2.08,2.08,0,0,1,189,2.41c-5.66,35.9-34.23,173.23-141,184.77A2.06,2.06,0,0,1,47.49,187.19Z"/></g></g><path class="cls-2" d="M29.56,92l13,36.33,14-37.91A22.64,22.64,0,0,1,59.68,84a5.91,5.91,0,0,1,4.81-1.91,7.23,7.23,0,0,1,5.18,2.05,6.38,6.38,0,0,1,2.14,4.75,9.79,9.79,0,0,1-.38,2.46A24.74,24.74,0,0,1,70.55,94l-1.14,2.81L54.06,134.87c-.43,1.09-1,2.48-1.67,4.16a21.81,21.81,0,0,1-2.29,4.3,9,9,0,0,1-3.1,2.79,9.4,9.4,0,0,1-4.49,1,8.72,8.72,0,0,1-5.42-1.55,10.6,10.6,0,0,1-3-3.4q-1-1.84-3.25-7.29L15.62,97.19c-.35-.94-.71-1.87-1.09-2.81a24.61,24.61,0,0,1-.93-2.87A10,10,0,0,1,13.22,89a6.12,6.12,0,0,1,1-3.25A7.7,7.7,0,0,1,17,83.1a7.45,7.45,0,0,1,3.8-1c2.66,0,4.49.77,5.48,2.29A36,36,0,0,1,29.56,92Z"/><path class="cls-2" d="M126.36,118.52H95.07a21.2,21.2,0,0,0,2.2,9.61,14.7,14.7,0,0,0,13.5,8.38,19.13,19.13,0,0,0,5.25-.68,17.13,17.13,0,0,0,4.6-2.11,35,35,0,0,0,4.1-3.07c1.25-1.1,2.87-2.58,4.86-4.46a5.28,5.28,0,0,1,3.52-1,5.76,5.76,0,0,1,4,1.35,4.81,4.81,0,0,1,1.53,3.81,10.42,10.42,0,0,1-1.7,5.06,20.12,20.12,0,0,1-5.13,5.57,29.09,29.09,0,0,1-8.61,4.42,36.89,36.89,0,0,1-11.93,1.76q-15.4,0-24-8.79t-8.56-23.84a40,40,0,0,1,2.11-13.16A29,29,0,0,1,87,90.92a26.57,26.57,0,0,1,10-6.65A35.79,35.79,0,0,1,110.07,82a31.13,31.13,0,0,1,16.09,4,26,26,0,0,1,10,10.23,26.82,26.82,0,0,1,3.34,12.77q0,6-3.45,7.82T126.36,118.52Zm-31.29-9.08h29q-.6-8.2-4.43-12.28a13.27,13.27,0,0,0-10.11-4.07,12.81,12.81,0,0,0-9.81,4.13Q95.89,101.35,95.07,109.44Z"/><path class="cls-3" d="M205.46,73.17H171.19v22h28.65c2.65,0,4.64.6,5.94,1.79a6.13,6.13,0,0,1,2,4.77,6,6,0,0,1-2,4.75c-1.33,1.17-3.31,1.76-5.92,1.76H171.19v28.3c0,3.59-.82,6.26-2.44,8a8.82,8.82,0,0,1-12.54,0q-2.43-2.64-2.43-8V70.41a14.33,14.33,0,0,1,1.12-6.12,6.94,6.94,0,0,1,3.48-3.46,14.73,14.73,0,0,1,6.07-1.08h41c2.78,0,4.84.61,6.18,1.85a6.23,6.23,0,0,1,2,4.83,6.3,6.3,0,0,1-2,4.89Q209.63,73.16,205.46,73.17Z"/><path class="cls-3" d="M280.81,114.59a38,38,0,0,1-2.22,13.19,29.26,29.26,0,0,1-6.45,10.37,28.38,28.38,0,0,1-10.08,6.65,35.66,35.66,0,0,1-13.18,2.31,34.71,34.71,0,0,1-13.07-2.34,28.89,28.89,0,0,1-16.49-17,37.62,37.62,0,0,1-2.2-13.16,38.07,38.07,0,0,1,2.23-13.3A28.8,28.8,0,0,1,225.74,91a28.12,28.12,0,0,1,10.07-6.59,38.06,38.06,0,0,1,26.25,0A28.6,28.6,0,0,1,272.2,91.1a29,29,0,0,1,6.42,10.31A38,38,0,0,1,280.81,114.59Zm-16.05,0q0-9.78-4.31-15.23a14,14,0,0,0-11.57-5.45,14.32,14.32,0,0,0-8.26,2.43,15.41,15.41,0,0,0-5.51,7.18,29.16,29.16,0,0,0-1.93,11.07,29,29,0,0,0,1.9,11,15.72,15.72,0,0,0,5.45,7.18,14.16,14.16,0,0,0,8.35,2.49,14,14,0,0,0,11.57-5.48Q264.76,124.27,264.76,114.59Z"/><path class="cls-3" d="M353.29,114.59a38,38,0,0,1-2.22,13.19,29.12,29.12,0,0,1-6.45,10.37,28.38,28.38,0,0,1-10.08,6.65,35.66,35.66,0,0,1-13.18,2.31,34.71,34.71,0,0,1-13.07-2.34,28.89,28.89,0,0,1-16.49-17,40.62,40.62,0,0,1,0-26.46A28.8,28.8,0,0,1,298.22,91a28.12,28.12,0,0,1,10.07-6.59,38.06,38.06,0,0,1,26.25,0,28.6,28.6,0,0,1,10.14,6.68,29,29,0,0,1,6.42,10.31A38,38,0,0,1,353.29,114.59Zm-16.05,0q0-9.78-4.31-15.23a14,14,0,0,0-11.57-5.45,14.32,14.32,0,0,0-8.26,2.43,15.41,15.41,0,0,0-5.51,7.18,29.16,29.16,0,0,0-1.93,11.07,29,29,0,0,0,1.9,11,15.72,15.72,0,0,0,5.45,7.18,14.16,14.16,0,0,0,8.35,2.49,14,14,0,0,0,11.57-5.48Q337.24,124.27,337.24,114.59Z"/><path class="cls-3" d="M409.72,138v-1.58a41.14,41.14,0,0,1-6.36,6,24,24,0,0,1-6.79,3.51,25.61,25.61,0,0,1-8,1.2,23.59,23.59,0,0,1-10.64-2.43,24.75,24.75,0,0,1-8.46-6.94,31.49,31.49,0,0,1-5.42-10.61A45.24,45.24,0,0,1,362.2,114q0-15,7.32-23.38t19.28-8.38a25.91,25.91,0,0,1,11.66,2.37,32.65,32.65,0,0,1,9.26,7.3V68.25q0-4.94,2-7.45a6.69,6.69,0,0,1,5.6-2.52,6.94,6.94,0,0,1,5.59,2.32q2,2.31,2,6.83V138c0,3.05-.71,5.33-2.11,6.86a7.09,7.09,0,0,1-5.45,2.28,7,7,0,0,1-5.42-2.37Q409.72,142.37,409.72,138Zm-31.46-23.49a27.26,27.26,0,0,0,2,11.07,15.43,15.43,0,0,0,5.53,6.89,13.73,13.73,0,0,0,7.68,2.31,14.1,14.1,0,0,0,7.7-2.2,15.06,15.06,0,0,0,5.57-6.74,27.11,27.11,0,0,0,2.08-11.33,26.48,26.48,0,0,0-2.08-11,16.52,16.52,0,0,0-5.62-7A13.46,13.46,0,0,0,393.37,94a13.11,13.11,0,0,0-7.85,2.49,16,16,0,0,0-5.36,7.15A28.36,28.36,0,0,0,378.26,114.48Z"/></g></g></svg>